<?xml version="1.0" encoding="utf-8"?>
<!-- Generator: Adobe Illustrator 16.0.0, SVG Export Plug-In . SVG Version: 6.00 Build 0)  -->
<!DOCTYPE svg PUBLIC "-//W3C//DTD SVG 1.1//EN" "http://www.w3.org/Graphics/SVG/1.1/DTD/svg11.dtd">
<svg version="1.1" id="logo" xmlns="http://www.w3.org/2000/svg" xmlns:xlink="http://www.w3.org/1999/xlink" x="0px" y="0px"
	 width="261.25px" height="57.75px" viewBox="0 0 261.25 57.75" enable-background="new 0 0 261.25 57.75" xml:space="preserve">
<g>
	<g>
		<defs>
			<rect id="SVGID_1_" x="-65" y="-60.192" width="404.511" height="176.692"/>
		</defs>
		<clipPath id="SVGID_2_">
			<use xlink:href="#SVGID_1_"  overflow="visible"/>
		</clipPath>
		<path clip-path="url(#SVGID_2_)" fill="#FCFCFC" d="M73.097,14.659h11.555c1.702,0,3.209,0.242,4.52,0.726
			c1.309,0.486,2.384,1.147,3.223,1.985c0.654,0.656,1.165,1.423,1.533,2.3c0.366,0.878,0.55,1.815,0.55,2.81v0.079
			c0,1.153-0.204,2.181-0.61,3.085c-0.406,0.904-0.969,1.684-1.69,2.339c-0.72,0.655-1.572,1.185-2.554,1.591
			c-0.983,0.406-2.051,0.688-3.204,0.846l9.079,11.753h-2.594l-8.764-11.399h-0.079H75.14v11.399h-2.043V14.659z M84.416,28.927
			c1.152,0,2.221-0.146,3.203-0.435c0.983-0.288,1.828-0.702,2.535-1.241c0.707-0.539,1.264-1.197,1.671-1.972
			c0.405-0.775,0.609-1.663,0.609-2.662V22.54c0-1.866-0.688-3.338-2.063-4.416c-1.376-1.078-3.322-1.617-5.837-1.617H75.14v12.42
			H84.416z"/>
	</g>
	<g>
		<defs>
			<rect id="SVGID_3_" x="-65" y="-60.192" width="404.511" height="176.692"/>
		</defs>
		<clipPath id="SVGID_4_">
			<use xlink:href="#SVGID_3_"  overflow="visible"/>
		</clipPath>
		<path clip-path="url(#SVGID_4_)" fill="#FCFCFC" d="M109.554,42.645c-1.313,0-2.567-0.25-3.763-0.748
			c-1.194-0.496-2.245-1.205-3.151-2.121c-0.907-0.918-1.622-2.019-2.147-3.301c-0.526-1.285-0.788-2.714-0.788-4.285v-0.08
			c0-1.439,0.242-2.795,0.727-4.066c0.485-1.271,1.153-2.378,2.004-3.321c0.852-0.944,1.854-1.69,3.007-2.241
			c1.153-0.55,2.411-0.825,3.774-0.825c1.415,0,2.685,0.269,3.812,0.806c1.126,0.537,2.09,1.277,2.889,2.221
			c0.799,0.942,1.415,2.05,1.847,3.32c0.432,1.272,0.648,2.653,0.648,4.147v0.412c0,0.093-0.013,0.217-0.039,0.373h-16.625
			c0.079,1.252,0.355,2.359,0.828,3.323c0.473,0.968,1.064,1.786,1.772,2.466c0.71,0.678,1.518,1.191,2.425,1.545
			c0.906,0.352,1.858,0.526,2.857,0.526c1.575,0,2.908-0.301,3.999-0.903c1.091-0.604,2.056-1.35,2.897-2.24l1.336,1.18
			c-1.022,1.102-2.183,2.011-3.484,2.73C113.079,42.283,111.471,42.645,109.554,42.645 M116.37,31.206
			c-0.079-1.021-0.283-1.998-0.611-2.928c-0.329-0.93-0.789-1.756-1.38-2.476c-0.591-0.721-1.32-1.297-2.187-1.729
			c-0.867-0.432-1.879-0.648-3.034-0.648c-0.999,0-1.931,0.197-2.798,0.589c-0.867,0.393-1.623,0.937-2.266,1.631
			c-0.644,0.695-1.177,1.52-1.597,2.477c-0.419,0.956-0.669,1.984-0.748,3.085H116.37z"/>
	</g>
	<g>
		<defs>
			<rect id="SVGID_5_" x="-65" y="-60.192" width="404.511" height="176.692"/>
		</defs>
		<clipPath id="SVGID_6_">
			<use xlink:href="#SVGID_5_"  overflow="visible"/>
		</clipPath>
		<polygon clip-path="url(#SVGID_6_)" fill="#FCFCFC" points="121.99,22.126 124.229,22.126 131.816,40.01 139.479,22.126 
			141.643,22.126 132.641,42.33 130.99,42.33 		"/>
	</g>
	<g>
		<defs>
			<rect id="SVGID_7_" x="-65" y="-60.192" width="404.511" height="176.692"/>
		</defs>
		<clipPath id="SVGID_8_">
			<use xlink:href="#SVGID_7_"  overflow="visible"/>
		</clipPath>
		<path clip-path="url(#SVGID_8_)" fill="#FCFCFC" d="M155.382,42.645c-1.313,0-2.567-0.25-3.763-0.748
			c-1.194-0.496-2.246-1.205-3.151-2.121c-0.907-0.918-1.622-2.019-2.147-3.301c-0.524-1.285-0.788-2.714-0.788-4.285v-0.08
			c0-1.439,0.241-2.795,0.728-4.066c0.485-1.271,1.153-2.378,2.006-3.321c0.851-0.944,1.854-1.69,3.006-2.241
			c1.153-0.55,2.41-0.825,3.773-0.825c1.415,0,2.686,0.269,3.813,0.806c1.125,0.537,2.09,1.277,2.89,2.221
			c0.799,0.942,1.415,2.05,1.849,3.32c0.432,1.272,0.646,2.653,0.646,4.147v0.412c0,0.093-0.014,0.217-0.038,0.373h-16.626
			c0.078,1.252,0.354,2.359,0.827,3.323c0.474,0.968,1.063,1.786,1.772,2.466c0.709,0.678,1.519,1.191,2.424,1.545
			c0.907,0.352,1.859,0.526,2.857,0.526c1.575,0,2.909-0.301,4-0.903c1.091-0.604,2.055-1.35,2.896-2.24l1.336,1.18
			c-1.021,1.102-2.184,2.011-3.482,2.73C158.906,42.283,157.299,42.645,155.382,42.645 M162.195,31.206
			c-0.077-1.021-0.281-1.998-0.609-2.928c-0.328-0.93-0.788-1.756-1.379-2.476c-0.593-0.721-1.321-1.297-2.188-1.729
			c-0.867-0.432-1.879-0.648-3.035-0.648c-0.998,0-1.93,0.197-2.797,0.589c-0.867,0.393-1.623,0.937-2.267,1.631
			c-0.646,0.695-1.176,1.52-1.597,2.477c-0.42,0.956-0.67,1.984-0.748,3.085H162.195z"/>
	</g>
	<g>
		<defs>
			<rect id="SVGID_9_" x="-65" y="-60.192" width="404.511" height="176.692"/>
		</defs>
		<clipPath id="SVGID_10_">
			<use xlink:href="#SVGID_9_"  overflow="visible"/>
		</clipPath>
		<path clip-path="url(#SVGID_10_)" fill="#FCFCFC" d="M169.859,22.126h1.928v3.734c0.681-1.179,1.598-2.174,2.752-2.987
			c1.15-0.812,2.645-1.219,4.479-1.219c1.258,0,2.385,0.204,3.381,0.61c0.996,0.406,1.842,0.976,2.535,1.709
			c0.694,0.735,1.219,1.606,1.572,2.614c0.354,1.009,0.53,2.118,0.53,3.321v12.264h-1.927V30.264c0-2.071-0.551-3.728-1.649-4.973
			c-1.103-1.244-2.673-1.867-4.717-1.867c-0.996,0-1.913,0.177-2.751,0.531c-0.84,0.354-1.572,0.845-2.201,1.474
			c-0.629,0.629-1.12,1.382-1.475,2.26c-0.354,0.878-0.53,1.841-0.53,2.889v11.595h-1.927V22.126L169.859,22.126z"/>
	</g>
	<g>
		<defs>
			<rect id="SVGID_11_" x="-65" y="-60.192" width="404.511" height="176.692"/>
		</defs>
		<clipPath id="SVGID_12_">
			<use xlink:href="#SVGID_11_"  overflow="visible"/>
		</clipPath>
		<path clip-path="url(#SVGID_12_)" fill="#FCFCFC" d="M201.578,42.645c-1.258,0-2.385-0.205-3.38-0.608
			c-0.996-0.407-1.843-0.978-2.534-1.711c-0.693-0.733-1.221-1.604-1.572-2.613c-0.354-1.008-0.531-2.116-0.531-3.321V22.126h1.926
			v11.911c0,2.068,0.551,3.727,1.652,4.971c1.1,1.245,2.672,1.867,4.715,1.867c0.97,0,1.881-0.178,2.732-0.531
			s1.592-0.845,2.221-1.473c0.629-0.629,1.12-1.383,1.473-2.262c0.354-0.877,0.531-1.84,0.531-2.889V22.126h1.926v20.045h-1.926
			v-3.733c-0.682,1.181-1.598,2.176-2.752,2.986C204.904,42.236,203.412,42.645,201.578,42.645"/>
	</g>
	<g>
		<defs>
			<rect id="SVGID_13_" x="-65" y="-60.192" width="404.511" height="176.692"/>
		</defs>
		<clipPath id="SVGID_14_">
			<use xlink:href="#SVGID_13_"  overflow="visible"/>
		</clipPath>
		<path clip-path="url(#SVGID_14_)" fill="#FCFCFC" d="M226.521,42.645c-1.314,0-2.568-0.25-3.764-0.748
			c-1.193-0.496-2.244-1.205-3.15-2.121c-0.907-0.918-1.623-2.019-2.148-3.301c-0.523-1.285-0.786-2.714-0.786-4.285v-0.08
			c0-1.439,0.241-2.795,0.726-4.066c0.485-1.271,1.154-2.378,2.006-3.321c0.851-0.944,1.854-1.69,3.007-2.241
			c1.153-0.55,2.41-0.825,3.772-0.825c1.416,0,2.686,0.269,3.813,0.806s2.09,1.277,2.891,2.221c0.799,0.942,1.414,2.05,1.848,3.32
			c0.432,1.272,0.646,2.653,0.646,4.147v0.412c0,0.093-0.014,0.217-0.038,0.373h-16.625c0.077,1.252,0.354,2.359,0.826,3.323
			c0.474,0.968,1.063,1.786,1.772,2.466c0.709,0.678,1.519,1.191,2.425,1.545c0.907,0.352,1.858,0.526,2.856,0.526
			c1.575,0,2.909-0.301,4-0.903c1.092-0.604,2.055-1.35,2.896-2.24l1.337,1.18c-1.021,1.102-2.185,2.011-3.483,2.73
			C230.045,42.283,228.438,42.645,226.521,42.645 M233.335,31.206c-0.078-1.021-0.28-1.998-0.608-2.928
			c-0.33-0.93-0.789-1.756-1.381-2.476c-0.592-0.721-1.32-1.297-2.188-1.729c-0.867-0.432-1.879-0.648-3.034-0.648
			c-0.998,0-1.931,0.197-2.798,0.589c-0.867,0.393-1.623,0.937-2.266,1.631c-0.645,0.695-1.177,1.52-1.598,2.477
			c-0.42,0.956-0.67,1.984-0.747,3.085H233.335z"/>
	</g>
	<g>
		<defs>
			<rect id="SVGID_15_" x="-65" y="-60.192" width="404.511" height="176.692"/>
		</defs>
		<clipPath id="SVGID_16_">
			<use xlink:href="#SVGID_15_"  overflow="visible"/>
		</clipPath>
		<path clip-path="url(#SVGID_16_)" fill="#FCFCFC" d="M249.449,42.645c-1.205,0-2.391-0.236-3.557-0.709
			c-1.166-0.472-2.207-1.151-3.123-2.043c-0.918-0.892-1.66-1.984-2.222-3.281c-0.565-1.297-0.847-2.758-0.847-4.383V32.15
			c0-1.625,0.281-3.086,0.847-4.383c0.562-1.297,1.304-2.398,2.222-3.302c0.916-0.904,1.957-1.598,3.123-2.083
			c1.166-0.484,2.352-0.727,3.557-0.727c0.996,0,1.912,0.132,2.752,0.393c0.838,0.263,1.592,0.616,2.26,1.061
			c0.668,0.446,1.271,0.957,1.809,1.533c0.537,0.577,1.016,1.179,1.435,1.808V13.48h1.928v28.692h-1.928v-4.479
			c-0.444,0.654-0.937,1.281-1.474,1.886c-0.537,0.603-1.14,1.126-1.808,1.571c-0.669,0.445-1.415,0.806-2.239,1.082
			C251.355,42.506,250.445,42.645,249.449,42.645 M249.626,40.796c1.052,0,2.067-0.209,3.056-0.629
			c0.982-0.419,1.856-1.008,2.619-1.769c0.762-0.76,1.372-1.664,1.832-2.713c0.459-1.047,0.688-2.213,0.688-3.496v-0.08
			c0-1.283-0.229-2.457-0.688-3.519c-0.46-1.061-1.07-1.965-1.832-2.712c-0.763-0.747-1.637-1.33-2.619-1.749
			c-0.986-0.418-2.004-0.628-3.056-0.628c-1.103,0-2.134,0.196-3.093,0.589c-0.959,0.393-1.793,0.957-2.502,1.69
			c-0.709,0.734-1.268,1.631-1.676,2.692c-0.406,1.061-0.609,2.259-0.609,3.595v0.08c0,1.311,0.21,2.502,0.63,3.576
			c0.421,1.074,0.992,1.984,1.715,2.73c0.724,0.747,1.562,1.324,2.521,1.729C247.57,40.594,248.575,40.796,249.626,40.796"/>
	</g>
	<g>
		<defs>
			<rect id="SVGID_17_" x="-65" y="-60.192" width="404.511" height="176.692"/>
		</defs>
		<clipPath id="SVGID_18_">
			<use xlink:href="#SVGID_17_"  overflow="visible"/>
		</clipPath>
		<path clip-path="url(#SVGID_18_)" fill="#FCFCFC" d="M49.897,15.932c-0.002-0.746-0.39-1.469-1.08-1.867L37.726,7.662L26.66,1.272
			c-0.645-0.382-1.472-0.415-2.17-0.015L13.397,7.662l-10.92,6.305c-0.744,0.34-1.26,1.093-1.26,1.965V28.74v12.806h0.01
			c0,0.745,0.388,1.47,1.078,1.866l11.093,6.402l10.641,6.144v-8.319L11.951,39.74c-0.595-0.596-0.595-1.561,0-2.154
			c0.595-0.594,1.559-0.594,2.154,0l9.933,5.745V32.829l-8.774-6.68c-0.595-0.594-0.595-1.559,0-2.154
			c0.595-0.594,1.559-0.594,2.154,0l6.62,4.526V18.019L18.8,12.781c-0.595-0.594-0.595-1.558,0-2.153
			c0.595-0.595,1.558-0.595,2.153,0l4.608,4.607l4.607-4.607c0.595-0.594,1.559-0.594,2.154,0c0.594,0.595,0.594,1.559,0,2.153
			l-5.238,5.238V28.52l6.62-4.526c0.594-0.594,1.558-0.594,2.153,0c0.595,0.595,0.595,1.56,0,2.154l-8.773,6.68V43.33l9.933-5.745
			c0.594-0.594,1.559-0.594,2.153,0c0.595,0.595,0.595,1.56,0,2.154l-12.086,7.896v8.323l10.641-6.146l10.92-6.305
			c0.746-0.341,1.26-1.092,1.26-1.965V28.74V15.932H49.897z"/>
	</g>
	<g>
		<defs>
			<rect id="SVGID_19_" x="-65" y="-60.192" width="404.511" height="176.692"/>
		</defs>
		<clipPath id="SVGID_20_">
			<use xlink:href="#SVGID_19_"  overflow="visible"/>
		</clipPath>
		<path clip-path="url(#SVGID_20_)" fill="#FCFCFC" d="M49.906,15.932h-0.008c-0.002-0.746-0.39-1.469-1.08-1.867L37.725,7.661
			L26.66,1.272c-0.333-0.196-0.713-0.3-1.099-0.301v14.264l4.667-4.577c0.595-0.595,1.559-0.595,2.154,0
			c0.594,0.594,0.535,1.529-0.059,2.123l-5.239,5.238V28.52l6.629-4.495c0.595-0.595,1.559-0.594,2.154,0
			c0.595,0.594,0.595,1.559,0,2.154l-8.783,6.649V43.33l9.559-5.528c0.816-0.528,1.637-0.6,2.231-0.006
			c0.594,0.595,0.537,1.579-0.057,2.174l-11.733,7.667c0,0-0.007,8.327,0,8.323l10.641-6.146l10.921-6.306
			c0.745-0.341,1.26-1.092,1.26-1.965V28.74V15.932z"/>
	</g>
</g>
</svg>
